<svg width="232" height="22" viewBox="0 0 232 22" fill="none" xmlns="http://www.w3.org/2000/svg">
<path d="M17.823 20.7418L14.9546 14.0742H5.75418L2.86068 20.7418H0.772339L9.25991 0.957031H11.4824L19.9952 20.7418H17.823ZM10.3838 3.20475L6.50061 12.2794H14.183L10.3838 3.20475Z" fill="black"/>
<path d="M39.7968 21.0941C35.8046 21.0941 33.0789 18.687 33.0789 13.3026V0.957031H35.0582V13.3026C35.0582 17.3451 36.7188 19.2741 39.822 19.2741C42.9251 19.2741 44.5606 17.3451 44.5606 13.3026V0.957031H46.5399V13.3026C46.5399 18.687 43.8057 21.0941 39.7968 21.0941Z" fill="black"/>
<path d="M66.8195 2.75185V20.7418H64.8401V2.75185H60.3196V0.957031H71.3484V2.75185H66.8278H66.8195Z" fill="black"/>
<path d="M93.666 21.0942C87.8538 21.0942 83.1991 16.4897 83.1991 10.7363C83.1991 4.98288 87.9964 0.613281 93.666 0.613281C99.3356 0.613281 104.108 5.21772 104.108 10.8705C104.108 16.5233 99.3943 21.1026 93.666 21.1026V21.0942ZM93.666 2.43326C89.0867 2.43326 85.2036 6.25769 85.2036 10.7866C85.2036 15.3156 89.0029 19.2742 93.666 19.2742C98.3291 19.2742 102.103 15.4749 102.103 10.8957C102.103 6.3164 98.2788 2.43326 93.666 2.43326Z" fill="black"/>
<path d="M136.188 20.7418H133.646L129.26 4.51311L124.924 20.7418H122.358L116.705 0.957031H118.743L123.616 18.1754L128.354 0.957031H130.225L134.963 18.1754L139.836 0.957031H141.874L136.196 20.7418H136.188Z" fill="url(#paint0_linear_2_20)"/>
<path d="M164.93 21.0942C159.118 21.0942 154.463 16.4897 154.463 10.7363C154.463 4.98288 159.252 0.613281 164.93 0.613281C170.608 0.613281 175.371 5.21772 175.371 10.8705C175.371 16.5233 170.658 21.1026 164.93 21.1026V21.0942ZM164.93 2.43326C160.35 2.43326 156.467 6.25769 156.467 10.7866C156.467 15.3156 160.267 19.2742 164.93 19.2742C169.593 19.2742 173.367 15.4749 173.367 10.8957C173.367 6.3164 169.543 2.43326 164.93 2.43326Z" fill="black"/>
<path d="M197.714 13.3533L203.258 20.7422H200.792L194.125 11.7766C199.669 11.7766 201.539 10.8121 201.539 7.25602C201.539 3.95995 199.501 2.76064 194.896 2.76064H192.112V20.7506H190.133V0.96582H195.031C201.245 0.96582 203.543 3.21352 203.543 7.33989C203.543 10.8456 201.505 12.9591 197.706 13.3617L197.714 13.3533Z" fill="black"/>
<path d="M229.668 20.7418L224.074 12.2794L218.455 20.7418H216.124L222.841 10.6188L216.493 0.957031H218.824L224.074 8.88269L229.291 0.957031H231.597L225.249 10.6188L232 20.7418H229.668Z" fill="black"/>
<defs>
<linearGradient id="paint0_linear_2_20" x1="116.696" y1="10.8536" x2="141.866" y2="10.8536" gradientUnits="userSpaceOnUse">
<stop stop-color="#01A79E"/>
<stop offset="1" stop-color="#26AADF"/>
</linearGradient>
</defs>
</svg>
