<svg xmlns="http://www.w3.org/2000/svg" width="54" height="44" viewBox="0 0 54 44" fill="none">
  <path d="M8.05245 28.7691L3.41085 43.9961H1.30328L7.00152 25.3231L8.05245 28.7691Z" fill="black"/>
  <path d="M23.7192 22.4141L22.6683 18.9643L16.8844 0H16.793H14.8092H14.7197L10.0134 15.4307L11.0681 18.8824L15.8011 3.35079L21.6117 22.4141L22.6683 25.8658L28.1933 43.9962H30.2989L23.7192 22.4141Z" fill="black"/>
  <path d="M53.0272 43.9962H50.9311L45.6098 26.5455V26.5416L44.555 23.0957V23.0919L37.5146 0H39.6203L45.6079 19.6421L46.6588 23.0881L53.0082 43.9181C53.0177 43.9448 53.0215 43.9676 53.0272 43.9943V43.9962Z" fill="black"/>
  <path d="M20.2581 25.7896C20.6084 26.9396 20.9587 28.0895 21.309 29.2413C19.8107 34.1609 18.3104 39.0785 16.8121 43.9981H14.3256C9.85349 29.3327 5.38134 14.6692 0.90918 0.00380771C1.6117 0.00380771 2.31422 0 3.01675 0C7.20904 13.3689 11.4013 26.7377 15.5936 40.1066C17.1491 35.3337 18.7045 30.5607 20.26 25.7877L20.2581 25.7896ZM38.714 41.3651C35.1976 29.8296 31.6812 18.2941 28.1648 6.75869C28.8406 4.50643 29.5184 2.25416 30.1943 0.00190386H28.1191L27.11 3.3089L26.1048 0.00190386H24.0029C24.6883 2.25607 25.3737 4.51023 26.0591 6.7644C25.1434 9.76487 24.2295 12.7634 23.3137 15.7639C23.6641 16.9139 24.0144 18.0638 24.3647 19.2156C25.2804 16.2151 26.1943 13.2128 27.11 10.2123C30.5446 21.4755 33.9791 32.7368 37.4137 44H40.0125C41.4327 39.3413 42.853 34.6825 44.2752 30.0238C43.9249 28.8739 43.5746 27.7239 43.2243 26.5721C41.7202 31.505 40.2162 36.436 38.714 41.3689V41.3651ZM51.2871 0C49.6193 5.46787 47.9515 10.9357 46.2819 16.4036C46.6322 17.5535 46.9825 18.7035 47.3328 19.8553L53.3889 0H51.2871Z" fill="url(#paint0_linear_2_14)"/>
  <defs>
    <linearGradient id="paint0_linear_2_14" x1="0.90918" y1="21.9971" x2="53.3889" y2="21.9971" gradientUnits="userSpaceOnUse">
      <stop stop-color="#01A79E"/>
      <stop offset="1" stop-color="#26AADF"/>
    </linearGradient>
  </defs>
</svg>