<svg width="22" height="17" viewBox="0 0 22 17" fill="none" xmlns="http://www.w3.org/2000/svg">
<path id="Vector" d="M8.60282 15H4.47557C3.25901 15 2.65072 15 2.18606 14.782C1.77732 14.5903 1.44501 14.2843 1.23676 13.908C1 13.4802 1 12.9201 1 11.8V4.2C1 3.07989 1 2.51984 1.23676 2.09202C1.44501 1.71569 1.77732 1.40973 2.18606 1.21799C2.65072 1 3.25901 1 4.47557 1H17.0745C18.2911 1 18.8994 1 19.3641 1.21799C19.7728 1.40973 20.1051 1.71569 20.3133 2.09202C20.5501 2.51984 20.5501 3.0799 20.5501 4.2V4.5M7.5167 5.5V4.5M7.5167 5.5H9.68904M7.5167 5.5C6.30328 5.49998 5.34712 5.62616 5.34458 6.8325C5.34266 7.7328 5.34456 8 7.5168 8C9.68904 8 9.68904 8.2055 9.68904 9.1667C9.68904 9.889 9.68893 10.5 7.5167 10.5M7.5167 10.5V11.5M7.5167 10.5H5.34458M12.9473 6H16.2056M12.9473 16L15.1467 15.595C15.3384 15.5597 15.4343 15.542 15.5237 15.5097C15.6031 15.4811 15.6785 15.4439 15.7484 15.399C15.8272 15.3484 15.8963 15.2848 16.0347 15.1574L20.5501 11C21.15 10.4477 21.15 9.5523 20.5501 9C19.9502 8.4477 18.9777 8.4477 18.3779 9L13.8624 13.1574C13.7241 13.2848 13.655 13.3484 13.6 13.421C13.5513 13.4853 13.5109 13.5548 13.4798 13.6279C13.4447 13.7102 13.4255 13.7985 13.3872 13.975L12.9473 16Z" stroke="#6571FF" stroke-width="2" stroke-linecap="round" stroke-linejoin="round"/>
</svg>
