<svg width="206" height="211" viewBox="0 0 206 211" fill="none" xmlns="http://www.w3.org/2000/svg">
<path d="M28.2975 113.164L10.1041 173.06H1.84322L24.1782 99.609L28.2975 113.164ZM89.7057 88.166L85.5865 74.5886L62.9156 -0.000970773H54.4309L35.9838 60.6966L40.118 74.274L58.6695 13.187L81.4448 88.1734L85.579 101.751L107.235 173.068H115.488L89.6908 88.1734L89.7057 88.166ZM204.508 172.753L179.62 90.817L175.501 77.2621L152.032 -0.000970773H143.778L171.367 90.8245V90.8395L175.501 104.394V104.409L196.359 173.053H204.575C204.56 172.948 204.537 172.858 204.5 172.753H204.508ZM17.1039 210.684L9.52951 193.018H7.55197L0 210.684H1.85814L4.43268 204.731H12.6264L15.1786 210.684H17.1113H17.1039ZM11.9324 203.128H5.09683L8.55193 195.025L11.9324 203.128ZM40.7224 204.034V193.011H38.9613V204.034C38.9613 207.644 37.4613 209.366 34.745 209.366C32.0287 209.366 30.5064 207.644 30.5064 204.034V193.011H28.7452V204.034C28.7452 208.842 31.178 210.992 34.7226 210.992C38.2673 210.992 40.7224 208.842 40.7224 204.034ZM62.7962 194.613V193.011H52.9832V194.613H57.0054V210.677H58.7665V194.613H62.7888H62.7962ZM91.9444 201.855C91.9444 196.808 87.7506 192.696 82.6537 192.696C77.5569 192.696 73.3406 196.83 73.3406 201.735C73.3406 206.873 77.4897 210.984 82.6537 210.984C87.8177 210.984 91.9444 206.85 91.9444 201.848V201.855ZM90.1609 201.878C90.1609 205.966 86.7581 209.359 82.6537 209.359C78.5494 209.359 75.1241 205.966 75.1241 201.78C75.1241 197.594 78.5792 194.321 82.6537 194.321C86.7282 194.321 90.1609 197.736 90.1609 201.878ZM125.548 193.011H123.734L119.399 208.385L115.182 193.011H113.518L109.302 208.385L104.966 193.011H103.153L108.183 210.677H110.466L114.324 196.186L118.227 210.677H120.488L125.54 193.011H125.548ZM155.36 201.855C155.36 196.808 151.166 192.696 146.069 192.696C140.973 192.696 136.756 196.83 136.756 201.735C136.756 206.873 140.898 210.984 146.069 210.984C151.241 210.984 155.36 206.85 155.36 201.848V201.855ZM153.577 201.878C153.577 205.966 150.174 209.359 146.069 209.359C141.965 209.359 138.54 205.966 138.54 201.78C138.54 197.594 141.995 194.321 146.069 194.321C150.144 194.321 153.577 197.736 153.577 201.878ZM180.434 198.702C180.434 195.018 178.382 193.011 172.859 193.011H168.501V210.677H170.262V194.613H172.74C176.837 194.613 178.65 195.692 178.65 198.627C178.65 201.803 176.986 202.664 172.053 202.664L177.986 210.67H180.18L175.247 204.072C178.628 203.712 180.441 201.825 180.441 198.695L180.434 198.702ZM205.746 210.677L199.739 201.638L205.388 193.011H203.336L198.694 200.088L194.023 193.011H191.948L197.597 201.638L191.62 210.677H193.694L198.694 203.121L203.672 210.677H205.746ZM57.8636 157.753C41.4239 105.173 24.9916 52.5861 8.55939 -0.000970773C5.80576 -0.000970773 3.05213 0.014007 0.298497 0.014007C17.8277 57.6936 35.3569 115.373 52.8861 173.053H62.6321C68.505 153.701 74.3854 134.358 80.2583 115.006C78.8852 110.483 77.5121 105.96 76.139 101.429C70.0422 120.204 63.9454 138.978 57.8486 157.753H57.8636ZM166.173 104.492C167.546 109.015 168.919 113.538 170.292 118.069C164.725 136.395 159.158 154.72 153.584 173.045H143.398C129.936 128.741 116.473 84.444 103.011 40.1396C99.4218 51.9421 95.8398 63.7521 92.2504 75.5546C90.8773 71.0313 89.5042 66.508 88.1311 61.9772C91.7206 50.1747 95.3025 38.3797 98.8919 26.5772C96.2055 17.7103 93.519 8.84343 90.8325 -0.0234375H99.071L103.011 12.9848L106.966 -0.0234375H115.1C112.451 8.83594 109.795 17.6953 107.145 26.5547C120.928 71.93 134.712 117.305 148.495 162.681C154.39 143.277 160.285 123.881 166.173 104.477V104.492ZM206 -0.000970773L182.262 78.1009C180.889 73.5776 179.516 69.0543 178.143 64.5235C184.68 43.0153 191.217 21.5072 197.762 -0.000970773H206Z" fill="#6571FF"/>
</svg>
