<svg width="22" height="22" viewBox="0 0 22 22" fill="none" xmlns="http://www.w3.org/2000/svg">
<path id="Analytics and Reporting Icon" d="M20.2104 14.8749C19.5742 16.3794 18.5792 17.7052 17.3123 18.7362C16.0454 19.7673 14.5452 20.4724 12.9428 20.7897C11.3405 21.1071 9.6848 21.0271 8.12055 20.5567C6.55627 20.0864 5.13103 19.24 3.96942 18.0916C2.80782 16.9432 1.94522 15.5277 1.45704 13.9689C0.968862 12.4101 0.869962 10.7554 1.169 9.14959C1.46804 7.54372 2.1559 6.03557 3.17245 4.75697C4.189 3.47837 5.50329 2.46826 7.0004 1.81494M20.2392 7.1581C20.6395 8.12457 20.8851 9.14629 20.9684 10.1858C20.989 10.4426 20.9993 10.571 20.9483 10.6867C20.9057 10.7833 20.8213 10.8747 20.7284 10.9249C20.6172 10.9849 20.4783 10.9849 20.2004 10.9849H11.8004C11.5204 10.9849 11.3804 10.9849 11.2734 10.9305C11.1793 10.8825 11.1028 10.806 11.0549 10.7119C11.0004 10.605 11.0004 10.465 11.0004 10.1849V1.78494C11.0004 1.50707 11.0004 1.36814 11.0605 1.25692C11.1107 1.16402 11.2021 1.07963 11.2987 1.03703C11.4144 0.986036 11.5428 0.996326 11.7996 1.01692C12.839 1.10026 13.8608 1.34582 14.8272 1.74614C16.0405 2.24869 17.1429 2.98528 18.0715 3.91387C19.0001 4.84246 19.7367 5.94485 20.2392 7.1581Z" stroke="white" stroke-width="2" stroke-linecap="round" stroke-linejoin="round"/>
</svg>
