<svg width="29" height="20" viewBox="0 0 29 20" fill="none" xmlns="http://www.w3.org/2000/svg">
<g id="Communications Hub Icon">
<path id="Vector" d="M19 9C19 13.4183 15.3187 17 10.7777 17C9.73611 17 8.73977 16.8116 7.82272 16.4678C7.65506 16.405 7.57122 16.3736 7.50455 16.3586C7.43898 16.3439 7.39151 16.3377 7.32427 16.3352C7.2559 16.3327 7.18089 16.3402 7.03088 16.3553L2.07719 16.8536C1.60489 16.901 1.36875 16.9248 1.22945 16.8421C1.10812 16.7701 1.02548 16.6498 1.00348 16.5132C0.978227 16.3563 1.09108 16.1531 1.31676 15.7467L2.89898 12.8972C3.02928 12.6626 3.09443 12.5452 3.12394 12.4324C3.15308 12.321 3.16013 12.2407 3.1508 12.126C3.14136 12.01 3.08903 11.8589 2.98437 11.5568C2.70624 10.754 2.55548 9.89412 2.55548 9C2.55548 4.58172 6.23672 1 10.7777 1C15.3187 1 19 4.58172 19 9Z" stroke="white" stroke-width="2" stroke-linecap="round" stroke-linejoin="round"/>
<g id="Vector_2">
<path d="M23.5 10H23.49H23.5ZM19 10H18.99H19ZM14.5 10H14.49H14.5ZM19 19C14.0294 19 10 14.9706 10 10C10 5.02944 14.0294 1 19 1C23.9706 1 28 5.02944 28 10C28 11.1971 27.7663 12.3397 27.3419 13.3845C27.2607 13.5845 27.2201 13.6845 27.202 13.7653C27.1843 13.8443 27.1778 13.9028 27.1778 13.9839C27.1778 14.0667 27.1928 14.1569 27.2229 14.3374L27.8159 17.8952C27.878 18.2678 27.909 18.4541 27.8512 18.5888C27.8007 18.7067 27.7067 18.8007 27.5888 18.8512C27.4541 18.909 27.2678 18.878 26.8952 18.8159L23.3373 18.2229C23.1569 18.1928 23.0667 18.1778 22.9839 18.1778C22.9028 18.1778 22.8443 18.1843 22.7653 18.202C22.6845 18.2201 22.5845 18.2607 22.3845 18.3419C21.3397 18.7663 20.1971 19 19 19ZM23 10C23 10.2761 23.2239 10.5 23.5 10.5C23.7761 10.5 24 10.2761 24 10C24 9.7239 23.7761 9.5 23.5 9.5C23.2239 9.5 23 9.7239 23 10ZM18.5 10C18.5 10.2761 18.7239 10.5 19 10.5C19.2761 10.5 19.5 10.2761 19.5 10C19.5 9.7239 19.2761 9.5 19 9.5C18.7239 9.5 18.5 9.7239 18.5 10ZM14 10C14 10.2761 14.2239 10.5 14.5 10.5C14.7761 10.5 15 10.2761 15 10C15 9.7239 14.7761 9.5 14.5 9.5C14.2239 9.5 14 9.7239 14 10Z" fill="#0C1427"/>
<path d="M23.5 10H23.49M19 10H18.99M14.5 10H14.49M19 19C14.0294 19 10 14.9706 10 10C10 5.02944 14.0294 1 19 1C23.9706 1 28 5.02944 28 10C28 11.1971 27.7663 12.3397 27.3419 13.3845C27.2607 13.5845 27.2201 13.6845 27.202 13.7653C27.1843 13.8443 27.1778 13.9028 27.1778 13.9839C27.1778 14.0667 27.1928 14.1569 27.2229 14.3374L27.8159 17.8952C27.878 18.2678 27.909 18.4541 27.8512 18.5888C27.8007 18.7067 27.7067 18.8007 27.5888 18.8512C27.4541 18.909 27.2678 18.878 26.8952 18.8159L23.3373 18.2229C23.1569 18.1928 23.0667 18.1778 22.9839 18.1778C22.9028 18.1778 22.8443 18.1843 22.7653 18.202C22.6845 18.2201 22.5845 18.2607 22.3845 18.3419C21.3397 18.7663 20.1971 19 19 19ZM23 10C23 10.2761 23.2239 10.5 23.5 10.5C23.7761 10.5 24 10.2761 24 10C24 9.7239 23.7761 9.5 23.5 9.5C23.2239 9.5 23 9.7239 23 10ZM18.5 10C18.5 10.2761 18.7239 10.5 19 10.5C19.2761 10.5 19.5 10.2761 19.5 10C19.5 9.7239 19.2761 9.5 19 9.5C18.7239 9.5 18.5 9.7239 18.5 10ZM14 10C14 10.2761 14.2239 10.5 14.5 10.5C14.7761 10.5 15 10.2761 15 10C15 9.7239 14.7761 9.5 14.5 9.5C14.2239 9.5 14 9.7239 14 10Z" stroke="white" stroke-width="2" stroke-linecap="round" stroke-linejoin="round"/>
</g>
</g>
</svg>
