<svg width="22" height="22" viewBox="0 0 22 22" fill="none" xmlns="http://www.w3.org/2000/svg">
<path id="Community Hub Icon" d="M11.83 7.66799C11.8318 7.03258 11.8337 6.39725 11.8357 5.76193C12.8959 5.40647 13.6497 4.38631 13.6497 3.19828C13.6497 1.72123 12.4822 0.5 11.0123 0.5C9.54225 0.5 8.37543 1.72139 8.37543 3.19828C8.37543 4.40514 9.15348 5.43823 10.2396 5.77789L10.2258 6.72606L10.2121 7.664C9.16469 7.90728 8.29569 8.61607 7.81474 9.55953L6.81079 9.28738L5.77156 9.00567C5.70929 7.58446 4.56595 6.43004 3.13686 6.43004C1.66689 6.43004 0.5 7.65135 0.5 9.1278C0.5 10.6042 1.66732 11.8261 3.13686 11.8261C4.08195 11.8261 4.90307 11.3191 5.36762 10.567C5.65138 10.6476 5.93503 10.7283 6.21864 10.8089C6.61539 10.9216 7.01204 11.0344 7.40874 11.1472C7.40751 11.1868 7.40688 11.2266 7.40688 11.2666C7.40688 12.2718 7.79989 13.1846 8.43832 13.8516C8.18648 14.2337 7.93471 14.6159 7.68297 14.9979L7.6811 15.0008C7.4225 15.3933 7.16393 15.7857 6.90531 16.1781C6.70709 16.1293 6.50023 16.1034 6.28785 16.1034C4.81855 16.1034 3.65048 17.3246 3.65048 18.8017C3.65048 20.2788 4.81855 21.5 6.28785 21.5C7.75723 21.5 8.92522 20.2782 8.92522 18.8017C8.92522 18.1314 8.68578 17.5162 8.28793 17.0431C8.53786 16.6538 8.78773 16.2645 9.03757 15.8752C9.28169 15.4949 9.52578 15.1146 9.76991 14.7343C10.1572 14.8803 10.5757 14.9605 11.0123 14.9605C11.4472 14.9605 11.8671 14.8801 12.2555 14.734L13.6939 17.0625C13.3055 17.5329 13.0722 18.1405 13.0722 18.8017C13.0722 20.2782 14.2396 21.5 15.7096 21.5C17.1796 21.5 18.347 20.2782 18.347 18.8017C18.347 17.3252 17.179 16.1034 15.7096 16.1034C15.4882 16.1034 15.273 16.1316 15.0674 16.1843C14.574 15.4068 14.0806 14.629 13.5872 13.8511C14.2254 13.1842 14.6177 12.2711 14.6177 11.2666C14.6177 11.218 14.6168 11.1697 14.6149 11.1216L15.6171 10.8367L16.6221 10.5509C17.0849 11.312 17.911 11.8261 18.8626 11.8261C20.3319 11.8261 21.5 10.6049 21.5 9.1278C21.5 7.65051 20.3318 6.43004 18.8626 6.43004C17.4409 6.43004 16.302 7.57254 16.229 8.9836C15.9388 9.06228 15.6487 9.14095 15.3586 9.21963C14.9714 9.32466 14.5842 9.42968 14.1968 9.53467C13.7163 8.60893 12.8605 7.91266 11.83 7.66799ZM3.12815 10.6717C2.31052 10.6717 1.62395 9.98591 1.62395 9.11094C1.62395 8.2358 2.31068 7.54962 3.12815 7.54962C3.94553 7.54962 4.63184 8.23519 4.63184 9.11094C4.63184 9.98644 3.94527 10.6717 3.12815 10.6717ZM7.80844 18.8144C7.80844 19.6893 7.12187 20.3752 6.30424 20.3752C5.48677 20.3752 4.80055 19.6895 4.80055 18.8144C4.80055 17.9391 5.48694 17.253 6.30424 17.253C7.12179 17.253 7.80844 17.9388 7.80844 18.8144ZM15.7045 17.253C16.5219 17.253 17.2082 17.9386 17.2082 18.8144C17.2082 19.6899 16.522 20.3752 15.7045 20.3752C14.887 20.3752 14.2008 19.6895 14.2008 18.8144C14.2008 17.9391 14.8872 17.253 15.7045 17.253ZM9.51885 3.19723C9.51885 2.32165 10.205 1.63644 11.0225 1.63644C11.8401 1.63644 12.5262 2.32165 12.5262 3.19723C12.5262 4.07298 11.8399 4.75855 11.0225 4.75855C10.2052 4.75855 9.51885 4.07298 9.51885 3.19723ZM10.9974 13.7845C9.66002 13.7845 8.55235 12.6658 8.55235 11.2555C8.55235 9.84522 9.66002 8.72647 10.9974 8.72647C12.3348 8.72647 13.4425 9.84569 13.4425 11.2555C13.4425 12.6652 12.3343 13.7845 10.9974 13.7845ZM18.8667 10.6933C18.0492 10.6933 17.3625 10.0076 17.3625 9.13201C17.3625 8.2566 18.049 7.57122 18.8667 7.57122C19.6842 7.57122 20.3704 8.25687 20.3704 9.13201C20.3704 10.0073 19.684 10.6933 18.8667 10.6933Z" fill="white" stroke="white"/>
</svg>
