<svg width="22" height="22" viewBox="0 0 22 22" fill="none" xmlns="http://www.w3.org/2000/svg">
<g id="Dashboard Icon">
<path id="Vector" d="M11.2852 10.8413C11.2852 10.1399 11.8288 9.57143 12.4994 9.57143H19.7852C20.4558 9.57143 20.9994 10.1399 20.9994 10.8413V19.7302C20.9994 20.4315 20.4558 21 19.7852 21H12.4994C11.8288 21 11.2852 20.4315 11.2852 19.7302V10.8413Z" stroke="white" stroke-width="2" stroke-linecap="round"/>
<path id="Vector_2" d="M1 2.25C1 1.55965 1.56285 1 2.25714 1H6.02857C6.72287 1 7.28571 1.55965 7.28571 2.25V19.75C7.28571 20.4404 6.72287 21 6.02857 21H2.25714C1.56285 21 1 20.4404 1 19.75V2.25Z" stroke="white" stroke-width="2" stroke-linecap="round"/>
<path id="Vector_3" d="M11.2852 2.28571C11.2852 1.57564 11.8288 1 12.4994 1H19.7852C20.4558 1 20.9994 1.57564 20.9994 2.28571V4.85714C20.9994 5.56722 20.4558 6.14286 19.7852 6.14286H12.4994C11.8288 6.14286 11.2852 5.56722 11.2852 4.85714V2.28571Z" stroke="white" stroke-width="2" stroke-linecap="round"/>
</g>
</svg>
