<svg width="20" height="22" viewBox="0 0 20 22" fill="none" xmlns="http://www.w3.org/2000/svg">
<g id="Inventory Management Icon">
<path id="Vector" d="M18.5 6.13379L10 10.8561M10 10.8561L1.49997 6.13379M10 10.8561V20.3561M19 14.9146V6.79749C19 6.45485 19 6.28353 18.9495 6.13073C18.9049 5.99555 18.8318 5.87147 18.7354 5.76678C18.6263 5.64844 18.4766 5.56524 18.177 5.39884L10.777 1.28773C10.4934 1.13017 10.3516 1.05139 10.2015 1.0205C10.0685 0.993168 9.9315 0.993168 9.7986 1.0205C9.6484 1.05139 9.5066 1.13017 9.223 1.28773L1.82297 5.39884C1.52345 5.56524 1.37369 5.64844 1.26463 5.76678C1.16816 5.87147 1.09515 5.99555 1.05048 6.13073C1 6.28353 1 6.45485 1 6.79749V14.9146C1 15.2573 1 15.4286 1.05048 15.5814C1.09515 15.7166 1.16816 15.8407 1.26463 15.9453C1.37369 16.0637 1.52345 16.1469 1.82297 16.3133L9.223 20.4244C9.5066 20.582 9.6484 20.6607 9.7986 20.6916C9.9315 20.719 10.0685 20.719 10.2015 20.6916C10.3516 20.6607 10.4934 20.582 10.777 20.4244L18.177 16.3133C18.4766 16.1469 18.6263 16.0637 18.7354 15.9453C18.8318 15.8407 18.9049 15.7166 18.9495 15.5814C19 15.4286 19 15.2573 19 14.9146Z" stroke="white" stroke-width="2" stroke-linecap="round" stroke-linejoin="round"/>
<path id="Vector_2" d="M14.5 8.35596L5.5 3.35596" stroke="white" stroke-width="2" stroke-linecap="round" stroke-linejoin="round"/>
</g>
</svg>
