<svg width="18" height="21" viewBox="0 0 18 21" fill="none" xmlns="http://www.w3.org/2000/svg">
<path id="Invoices Icon" d="M6 9.48047L8 11.4805L12.5 6.98047M17 19.9805V6.78047C17 5.10031 17 4.26023 16.673 3.6185C16.3854 3.05401 15.9265 2.59507 15.362 2.30745C14.7202 1.98047 13.8802 1.98047 12.2 1.98047H5.8C4.11984 1.98047 3.27976 1.98047 2.63803 2.30745C2.07354 2.59507 1.6146 3.05401 1.32698 3.6185C1 4.26023 1 5.10031 1 6.78047V19.9805L3.75 17.9805L6.25 19.9805L9 17.9805L11.75 19.9805L14.25 17.9805L17 19.9805Z" stroke="white" stroke-width="2" stroke-linecap="round" stroke-linejoin="round"/>
</svg>
