<svg width="276" height="50" viewBox="0 0 276 50" fill="none" xmlns="http://www.w3.org/2000/svg">
<path d="M7.63988 32.8123L2.39944 49.9989H0.0199585L6.45337 28.9229L7.63988 32.8123Z" fill="white"/>
<path d="M25.328 25.6384L24.1415 21.7446L17.6114 0.339844H17.5082H15.2685H15.1674L9.8539 17.7564L11.0447 21.6522L16.3883 4.12184L22.9486 25.6384L24.1415 29.5343L30.3793 49.9978H32.7567L25.328 25.6384Z" fill="white"/>
<path d="M58.4166 49.9978H56.05L50.0422 30.3014V30.2971L48.8514 26.4077V26.4034L40.9026 0.339844H43.2799L50.0401 22.5096L51.2266 26.3991L58.3951 49.9097C58.4059 49.9398 58.4102 49.9656 58.4166 49.9957V49.9978Z" fill="white"/>
<mask id="mask0_5624_7090" style="mask-type:luminance" maskUnits="userSpaceOnUse" x="0" y="0" width="60" height="50">
<path d="M22.9952 33.342L17.9181 49.9978H15.1109L8.75485 29.1561L7.56834 25.2602L0.0451392 0.599856C0.0193453 0.513901 0 0.4215 0 0.339844H2.34294L8.75485 21.3643L9.94137 25.2602L16.5123 46.8068L21.8108 29.4462L22.9973 33.342H22.9952ZM56.8861 0.339844L51.2351 18.8544L52.4216 22.7503L59.2592 0.339844H56.8861ZM47.7379 30.3272L42.6458 47.0281L30.7376 7.9683L32.9817 0.599856C33.0075 0.513901 33.0225 0.425798 33.0268 0.339844H30.6839L29.5447 4.07241L28.4097 0.339844H26.0367C26.041 0.369928 26.0475 0.402161 26.0582 0.432245L28.3603 7.97259L25.2608 18.1303L26.4473 22.0261L29.5468 11.8642L41.1798 50H44.1139L48.9266 34.2252V34.2209L47.7401 30.3315L47.7379 30.3272Z" fill="white"/>
</mask>
<g mask="url(#mask0_5624_7090)">
<path d="M25.5269 0.339844H25.2603V49.9978H25.5269V0.339844Z" fill="#11A8B9"/>
<path d="M26.4384 0.339844H25.527V49.9978H26.4384V0.339844Z" fill="#11A8BA"/>
<path d="M27.3503 0.339844H26.439V49.9978H27.3503V0.339844Z" fill="#12A8BB"/>
<path d="M28.2607 0.339844H27.3493V49.9978H28.2607V0.339844Z" fill="#12A8BC"/>
<path d="M29.1729 0.339844H28.2615V49.9978H29.1729V0.339844Z" fill="#13A8BD"/>
<path d="M30.0852 0.339844H29.1738V49.9978H30.0852V0.339844Z" fill="#14A9BF"/>
<path d="M30.9971 0.339844H30.0857V49.9978H30.9971V0.339844Z" fill="#14A9C0"/>
<path d="M31.9094 0.339844H30.998V49.9978H31.9094V0.339844Z" fill="#15A9C1"/>
<path d="M32.8196 0.339844H31.9083V49.9978H32.8196V0.339844Z" fill="#15A9C2"/>
<path d="M33.7319 0.339844H32.8205V49.9978H33.7319V0.339844Z" fill="#16A9C3"/>
<path d="M34.6438 0.339844H33.7325V49.9978H34.6438V0.339844Z" fill="#16A9C4"/>
<path d="M35.5541 0.339844H34.6427V49.9978H35.5541V0.339844Z" fill="#17A9C5"/>
<path d="M36.4663 0.339844H35.5549V49.9978H36.4663V0.339844Z" fill="#18A9C6"/>
<path d="M37.3803 0.339844H36.4689V49.9978H37.3803V0.339844Z" fill="#18A9C7"/>
<path d="M38.2905 0.339844H37.3791V49.9978H38.2905V0.339844Z" fill="#19A9C8"/>
<path d="M39.2028 0.339844H38.2914V49.9978H39.2028V0.339844Z" fill="#19A9C9"/>
<path d="M40.1131 0.339844H39.2017V49.9978H40.1131V0.339844Z" fill="#1AA9CA"/>
<path d="M41.0254 0.339844H40.114V49.9978H41.0254V0.339844Z" fill="#1AA9CB"/>
<path d="M41.9373 0.339844H41.0259V49.9978H41.9373V0.339844Z" fill="#1BA9CC"/>
<path d="M42.8475 0.339844H41.9362V49.9978H42.8475V0.339844Z" fill="#1CA9CD"/>
<path d="M43.7615 0.339844H42.8501V49.9978H43.7615V0.339844Z" fill="#1CA9CE"/>
<path d="M44.672 0.339844H43.7607V49.9978H44.672V0.339844Z" fill="#1DA9CF"/>
<path d="M45.584 0.339844H44.6726V49.9978H45.584V0.339844Z" fill="#1DA9D0"/>
<path d="M46.4962 0.339844H45.5848V49.9978H46.4962V0.339844Z" fill="#1EA9D1"/>
<path d="M47.4065 0.339844H46.4951V49.9978H47.4065V0.339844Z" fill="#1EA9D2"/>
<path d="M48.3187 0.339844H47.4073V49.9978H48.3187V0.339844Z" fill="#1FA9D3"/>
<path d="M48.9238 0.339844H48.3177V49.9978H48.9238V0.339844Z" fill="#20A9D4"/>
<path d="M51.9656 0.339844H51.2369V22.7503H51.9656V0.339844Z" fill="#21AAD7"/>
<path d="M52.8774 0.339844H51.966V22.7503H52.8774V0.339844Z" fill="#22AAD8"/>
<path d="M53.7897 0.339844H52.8783V22.7503H53.7897V0.339844Z" fill="#23AAD9"/>
<path d="M54.7 0.339844H53.7886V22.7503H54.7V0.339844Z" fill="#23AADA"/>
<path d="M55.6119 0.339844H54.7005V22.7503H55.6119V0.339844Z" fill="#24AADB"/>
<path d="M56.5241 0.339844H55.6127V22.7503H56.5241V0.339844Z" fill="#24AADC"/>
<path d="M57.4364 0.339844H56.525V22.7503H57.4364V0.339844Z" fill="#25AADD"/>
<path d="M58.3483 0.339844H57.437V22.7503H58.3483V0.339844Z" fill="#25AADE"/>
<path d="M59.2586 0.339844H58.3472V22.7503H59.2586V0.339844Z" fill="#26AADF"/>
<path d="M0.911382 0.339844H0V49.9978H0.911382V0.339844Z" fill="#01A79E"/>
<path d="M1.82364 0.339844H0.912262V49.9978H1.82364V0.339844Z" fill="#02A79F"/>
<path d="M2.73391 0.339844H1.82253V49.9978H2.73391V0.339844Z" fill="#02A7A0"/>
<path d="M3.64583 0.339844H2.73445V49.9978H3.64583V0.339844Z" fill="#03A7A1"/>
<path d="M4.55613 0.339844H3.64474V49.9978H4.55613V0.339844Z" fill="#03A7A2"/>
<path d="M5.47037 0.339844H4.55899V49.9978H5.47037V0.339844Z" fill="#04A7A3"/>
<path d="M6.38228 0.339844H5.4709V49.9978H6.38228V0.339844Z" fill="#04A7A4"/>
<path d="M7.29259 0.339844H6.38121V49.9978H7.29259V0.339844Z" fill="#05A7A5"/>
<path d="M8.20485 0.339844H7.29347V49.9978H8.20485V0.339844Z" fill="#06A7A6"/>
<path d="M9.11509 0.339844H8.2037V49.9978H9.11509V0.339844Z" fill="#06A7A7"/>
<path d="M10.0273 0.339844H9.11597V49.9978H10.0273V0.339844Z" fill="#07A7A8"/>
<path d="M10.9393 0.339844H10.0279V49.9978H10.9393V0.339844Z" fill="#07A8A9"/>
<path d="M11.8515 0.339844H10.9402V49.9978H11.8515V0.339844Z" fill="#08A8AA"/>
<path d="M12.7638 0.339844H11.8525V49.9978H12.7638V0.339844Z" fill="#09A8AB"/>
<path d="M13.6757 0.339844H12.7643V49.9978H13.6757V0.339844Z" fill="#09A8AC"/>
<path d="M14.586 0.339844H13.6746V49.9978H14.586V0.339844Z" fill="#0AA8AD"/>
<path d="M15.4983 0.339844H14.5869V49.9978H15.4983V0.339844Z" fill="#0AA8AE"/>
<path d="M16.4086 0.339844H15.4972V49.9978H16.4086V0.339844Z" fill="#0BA8AF"/>
<path d="M17.3208 0.339844H16.4095V49.9978H17.3208V0.339844Z" fill="#0BA8B0"/>
<path d="M18.2347 0.339844H17.3233V49.9978H18.2347V0.339844Z" fill="#0CA8B1"/>
<path d="M19.145 0.339844H18.2336V49.9978H19.145V0.339844Z" fill="#0DA8B2"/>
<path d="M20.057 0.339844H19.1456V49.9978H20.057V0.339844Z" fill="#0DA8B3"/>
<path d="M20.9675 0.339844H20.0562V49.9978H20.9675V0.339844Z" fill="#0EA8B4"/>
<path d="M21.8795 0.339844H20.9681V49.9978H21.8795V0.339844Z" fill="#0EA8B5"/>
<path d="M22.7917 0.339844H21.8804V49.9978H22.7917V0.339844Z" fill="#0FA8B6"/>
<path d="M22.9927 0.339844H22.7906V49.9978H22.9927V0.339844Z" fill="#0FA8B7"/>
</g>
<path d="M90.3967 34.2716L87.9199 28.5158H79.9753L77.4767 34.2716H75.6734L83.0025 17.1924H84.9216L92.2724 34.2716H90.3967ZM83.9729 19.1327L80.6198 26.9664H87.2536L83.9729 19.1327Z" fill="white"/>
<path d="M109.371 34.5757C105.924 34.5757 103.57 32.4978 103.57 27.8497V17.1924H105.279V27.8497C105.279 31.3394 106.713 33.0046 109.393 33.0046C112.072 33.0046 113.485 31.3394 113.485 27.8497V17.1924H115.194V27.8497C115.194 32.4978 112.833 34.5757 109.371 34.5757Z" fill="white"/>
<path d="M132.705 18.7418V34.2716H130.996V18.7418H127.093V17.1924H136.616V18.7418H132.712H132.705Z" fill="white"/>
<path d="M155.887 34.5756C150.868 34.5756 146.849 30.6009 146.849 25.6342C146.849 20.6676 150.992 16.8955 155.887 16.8955C160.783 16.8955 164.904 20.8703 164.904 25.7501C164.904 30.6298 160.834 34.5829 155.887 34.5829V34.5756ZM155.887 18.4666C151.933 18.4666 148.58 21.768 148.58 25.6776C148.58 29.5873 151.861 33.0045 155.887 33.0045C159.914 33.0045 163.173 29.7248 163.173 25.7718C163.173 21.8187 159.87 18.4666 155.887 18.4666Z" fill="white"/>
<mask id="mask1_5624_7090" style="mask-type:luminance" maskUnits="userSpaceOnUse" x="175" y="17" width="23" height="18">
<path d="M192.605 34.2716H190.41L186.623 20.2622L182.879 34.2716H180.662L175.781 17.1924H177.541L181.749 32.0561L185.841 17.1924H187.456L191.547 32.0561L195.755 17.1924H197.515L192.612 34.2716H192.605Z" fill="white"/>
</mask>
<g mask="url(#mask1_5624_7090)">
<path d="M176.107 17.1924H175.774V34.2716H176.107V17.1924Z" fill="#01A79E"/>
<path d="M176.448 17.1924H176.114V34.2716H176.448V17.1924Z" fill="#02A79F"/>
<path d="M176.781 17.1924H176.448V34.2716H176.781V17.1924Z" fill="#02A7A0"/>
<path d="M177.114 17.1924H176.781V34.2716H177.114V17.1924Z" fill="#03A7A1"/>
<path d="M177.447 17.1924H177.114V34.2716H177.447V17.1924Z" fill="#03A7A2"/>
<path d="M177.78 17.1924H177.447V34.2716H177.78V17.1924Z" fill="#04A7A3"/>
<path d="M178.113 17.1924H177.78V34.2716H178.113V17.1924Z" fill="#04A7A4"/>
<path d="M178.454 17.1924H178.121V34.2716H178.454V17.1924Z" fill="#05A7A5"/>
<path d="M178.787 17.1924H178.454V34.2716H178.787V17.1924Z" fill="#06A7A6"/>
<path d="M179.12 17.1924H178.787V34.2716H179.12V17.1924Z" fill="#06A7A7"/>
<path d="M179.453 17.1924H179.12V34.2716H179.453V17.1924Z" fill="#07A7A8"/>
<path d="M179.786 17.1924H179.453V34.2716H179.786V17.1924Z" fill="#07A8A9"/>
<path d="M180.119 17.1924H179.786V34.2716H180.119V17.1924Z" fill="#08A8AA"/>
<path d="M180.46 17.1924H180.127V34.2716H180.46V17.1924Z" fill="#09A8AB"/>
<path d="M180.793 17.1924H180.46V34.2716H180.793V17.1924Z" fill="#09A8AC"/>
<path d="M181.126 17.1924H180.793V34.2716H181.126V17.1924Z" fill="#0AA8AD"/>
<path d="M181.459 17.1924H181.126V34.2716H181.459V17.1924Z" fill="#0AA8AE"/>
<path d="M181.792 17.1924H181.459V34.2716H181.792V17.1924Z" fill="#0BA8AF"/>
<path d="M182.125 17.1924H181.792V34.2716H182.125V17.1924Z" fill="#0BA8B0"/>
<path d="M182.466 17.1924H182.133V34.2716H182.466V17.1924Z" fill="#0CA8B1"/>
<path d="M182.799 17.1924H182.466V34.2716H182.799V17.1924Z" fill="#0DA8B2"/>
<path d="M183.132 17.1924H182.799V34.2716H183.132V17.1924Z" fill="#0DA8B3"/>
<path d="M183.465 17.1924H183.132V34.2716H183.465V17.1924Z" fill="#0EA8B4"/>
<path d="M183.798 17.1924H183.465V34.2716H183.798V17.1924Z" fill="#0EA8B5"/>
<path d="M184.131 17.1924H183.798V34.2716H184.131V17.1924Z" fill="#0FA8B6"/>
<path d="M184.472 17.1924H184.139V34.2716H184.472V17.1924Z" fill="#0FA8B7"/>
<path d="M184.805 17.1924H184.472V34.2716H184.805V17.1924Z" fill="#10A8B8"/>
<path d="M185.138 17.1924H184.805V34.2716H185.138V17.1924Z" fill="#11A8B9"/>
<path d="M185.471 17.1924H185.138V34.2716H185.471V17.1924Z" fill="#11A8BA"/>
<path d="M185.804 17.1924H185.471V34.2716H185.804V17.1924Z" fill="#12A8BB"/>
<path d="M186.138 17.1924H185.804V34.2716H186.138V17.1924Z" fill="#12A8BC"/>
<path d="M186.478 17.1924H186.145V34.2716H186.478V17.1924Z" fill="#13A8BD"/>
<path d="M186.811 17.1924H186.478V34.2716H186.811V17.1924Z" fill="#14A9BF"/>
<path d="M187.144 17.1924H186.811V34.2716H187.144V17.1924Z" fill="#14A9C0"/>
<path d="M187.477 17.1924H187.144V34.2716H187.477V17.1924Z" fill="#15A9C1"/>
<path d="M187.81 17.1924H187.477V34.2716H187.81V17.1924Z" fill="#15A9C2"/>
<path d="M188.144 17.1924H187.81V34.2716H188.144V17.1924Z" fill="#16A9C3"/>
<path d="M188.484 17.1924H188.151V34.2716H188.484V17.1924Z" fill="#16A9C4"/>
<path d="M188.817 17.1924H188.484V34.2716H188.817V17.1924Z" fill="#17A9C5"/>
<path d="M189.15 17.1924H188.817V34.2716H189.15V17.1924Z" fill="#18A9C6"/>
<path d="M189.483 17.1924H189.15V34.2716H189.483V17.1924Z" fill="#18A9C7"/>
<path d="M189.817 17.1924H189.483V34.2716H189.817V17.1924Z" fill="#19A9C8"/>
<path d="M190.15 17.1924H189.817V34.2716H190.15V17.1924Z" fill="#19A9C9"/>
<path d="M190.49 17.1924H190.157V34.2716H190.49V17.1924Z" fill="#1AA9CA"/>
<path d="M190.823 17.1924H190.49V34.2716H190.823V17.1924Z" fill="#1AA9CB"/>
<path d="M191.156 17.1924H190.823V34.2716H191.156V17.1924Z" fill="#1BA9CC"/>
<path d="M191.489 17.1924H191.156V34.2716H191.489V17.1924Z" fill="#1CA9CD"/>
<path d="M191.823 17.1924H191.489V34.2716H191.823V17.1924Z" fill="#1CA9CE"/>
<path d="M192.156 17.1924H191.823V34.2716H192.156V17.1924Z" fill="#1DA9CF"/>
<path d="M192.496 17.1924H192.163V34.2716H192.496V17.1924Z" fill="#1DA9D0"/>
<path d="M192.829 17.1924H192.496V34.2716H192.829V17.1924Z" fill="#1EA9D1"/>
<path d="M193.162 17.1924H192.829V34.2716H193.162V17.1924Z" fill="#1EA9D2"/>
<path d="M193.496 17.1924H193.162V34.2716H193.496V17.1924Z" fill="#1FA9D3"/>
<path d="M193.829 17.1924H193.496V34.2716H193.829V17.1924Z" fill="#20A9D4"/>
<path d="M194.162 17.1924H193.829V34.2716H194.162V17.1924Z" fill="#20AAD5"/>
<path d="M194.495 17.1924H194.162V34.2716H194.495V17.1924Z" fill="#21AAD6"/>
<path d="M194.835 17.1924H194.502V34.2716H194.835V17.1924Z" fill="#21AAD7"/>
<path d="M195.168 17.1924H194.835V34.2716H195.168V17.1924Z" fill="#22AAD8"/>
<path d="M195.502 17.1924H195.168V34.2716H195.502V17.1924Z" fill="#23AAD9"/>
<path d="M195.835 17.1924H195.502V34.2716H195.835V17.1924Z" fill="#23AADA"/>
<path d="M196.168 17.1924H195.835V34.2716H196.168V17.1924Z" fill="#24AADB"/>
<path d="M196.501 17.1924H196.168V34.2716H196.501V17.1924Z" fill="#24AADC"/>
<path d="M196.841 17.1924H196.508V34.2716H196.841V17.1924Z" fill="#25AADD"/>
<path d="M197.175 17.1924H196.841V34.2716H197.175V17.1924Z" fill="#25AADE"/>
<path d="M197.508 17.1924H197.175V34.2716H197.508V17.1924Z" fill="#26AADF"/>
</g>
<path d="M217.423 34.5756C212.405 34.5756 208.385 30.6009 208.385 25.6342C208.385 20.6676 212.521 16.8955 217.423 16.8955C222.326 16.8955 226.44 20.8703 226.44 25.7501C226.44 30.6298 222.37 34.5829 217.423 34.5829V34.5756ZM217.423 18.4666C213.469 18.4666 210.116 21.768 210.116 25.6776C210.116 29.5873 213.397 33.0045 217.423 33.0045C221.45 33.0045 224.709 29.7248 224.709 25.7718C224.709 21.8187 221.407 18.4666 217.423 18.4666Z" fill="white"/>
<path d="M245.733 27.8927L250.52 34.2712H248.391L242.633 26.5316C247.42 26.5316 249.035 25.699 249.035 22.6292C249.035 19.7839 247.275 18.7486 243.3 18.7486H240.895V34.2784H239.186V17.1992H243.415C248.782 17.1992 250.766 19.1395 250.766 22.7016C250.766 25.728 249.006 27.5524 245.726 27.9L245.733 27.8927Z" fill="white"/>
<path d="M273.325 34.2716L268.495 26.9664L263.643 34.2716H261.629L267.43 25.5329L261.948 17.1924H263.961L268.495 24.0342L273 17.1924H274.991L269.509 25.5329L275.339 34.2716H273.325Z" fill="white"/>
</svg>
