<svg width="22" height="22" viewBox="0 0 22 22" fill="none" xmlns="http://www.w3.org/2000/svg">
<path id="Payments Icon" d="M11 15.9805C11 18.7419 13.2386 20.9805 16 20.9805C18.7614 20.9805 21 18.7419 21 15.9805C21 13.2191 18.7614 10.9805 16 10.9805C13.2386 10.9805 11 13.2191 11 15.9805ZM11 15.9805C11 14.8547 11.3721 13.8158 12 12.98V3.98047M11 15.9805C11 16.8059 11.2 17.5845 11.5541 18.2706C10.7117 18.9823 8.76584 19.4805 6.5 19.4805C3.46243 19.4805 1 18.5851 1 17.4805V3.98047M12 3.98047C12 5.08504 9.5376 5.98047 6.5 5.98047C3.46243 5.98047 1 5.08504 1 3.98047M12 3.98047C12 2.8759 9.5376 1.98047 6.5 1.98047C3.46243 1.98047 1 2.8759 1 3.98047M1 12.9805C1 14.0851 3.46243 14.9805 6.5 14.9805C8.689 14.9805 10.5793 14.5155 11.4646 13.8423M12 8.48047C12 9.58507 9.5376 10.4805 6.5 10.4805C3.46243 10.4805 1 9.58507 1 8.48047" stroke="white" stroke-width="2" stroke-linecap="round" stroke-linejoin="round"/>
</svg>
