<svg width="22" height="22" viewBox="0 0 22 22" fill="none" xmlns="http://www.w3.org/2000/svg">
<g id="Sales Funnel Management Icon">
<path id="Vector" d="M20.8105 2.64722C20.4529 3.7659 20.0953 4.88459 19.7376 6.00327C19.5657 6.54154 19.0429 6.90903 18.4506 6.90903H3.41873C2.82647 6.90903 2.3037 6.54154 2.13171 6.00327C1.77408 4.88459 1.41645 3.7659 1.05882 2.64722C0.796862 1.82685 1.44265 1 2.34584 1H19.5235C20.4267 1 21.0725 1.82685 20.8105 2.64722Z" stroke="white" stroke-width="2" stroke-miterlimit="10"/>
<path id="Vector_2" d="M18.5587 9.69312C18.2011 10.8118 17.8435 11.9294 17.4858 13.0481C17.3139 13.5864 16.7911 13.9538 16.1988 13.9538H5.67264C5.08038 13.9538 4.5576 13.5864 4.38562 13.0481C4.02799 11.9294 3.67036 10.8118 3.31273 9.69312C3.05077 8.87275 3.69655 8.0459 4.59974 8.0459H17.2717C18.1749 8.0459 18.8207 8.87275 18.5587 9.69312Z" stroke="white" stroke-width="2" stroke-miterlimit="10"/>
<path id="Vector_3" d="M16.3058 16.738C15.9482 17.8567 15.5906 18.9754 15.2329 20.0941C15.0609 20.6324 14.5382 20.9998 13.9459 20.9998H7.92654C7.33429 20.9998 6.81151 20.6324 6.63953 20.0941C6.28189 18.9754 5.92426 17.8567 5.56663 16.738C5.30467 15.9177 5.95046 15.0908 6.85365 15.0908H15.0199C15.9231 15.0908 16.5689 15.9177 16.307 16.738H16.3058Z" stroke="white" stroke-width="2" stroke-miterlimit="10"/>
</g>
</svg>
