<svg width="20" height="22" viewBox="0 0 20 22" fill="none" xmlns="http://www.w3.org/2000/svg">
<g id="Settings Icon">
<path id="Vector" d="M10.0625 14C11.7193 14 13.0625 12.6569 13.0625 11C13.0625 9.3431 11.7193 8 10.0625 8C8.40561 8 7.0625 9.3431 7.0625 11C7.0625 12.6569 8.40561 14 10.0625 14Z" stroke="white" stroke-width="2" stroke-linecap="round" stroke-linejoin="round"/>
<path id="Vector_2" d="M7.35012 18.3711L7.93457 19.6856C8.10835 20.0768 8.39185 20.4093 8.75075 20.6426C9.10975 20.8759 9.52865 21.0001 9.95675 21C10.3849 21.0001 10.8038 20.8759 11.1627 20.6426C11.5217 20.4093 11.8052 20.0768 11.979 19.6856L12.5634 18.3711C12.7715 17.9047 13.1214 17.5159 13.5634 17.26C14.0082 17.0034 14.5227 16.8941 15.0334 16.9478L16.4634 17.1C16.8891 17.145 17.3187 17.0656 17.7001 16.8713C18.0815 16.6771 18.3984 16.3763 18.6123 16.0056C18.8265 15.635 18.9285 15.2103 18.906 14.7829C18.8835 14.3555 18.7375 13.9438 18.4856 13.5978L17.639 12.4344C17.3375 12.0171 17.1764 11.5148 17.179 11C17.1789 10.4866 17.3415 9.9864 17.6434 9.5711L18.4901 8.40778C18.7419 8.06175 18.888 7.65007 18.9105 7.22267C18.933 6.79528 18.8309 6.37054 18.6167 6C18.4028 5.62923 18.086 5.32849 17.7045 5.13423C17.3231 4.93997 16.8935 4.86053 16.4679 4.90556L15.0379 5.05778C14.5272 5.11141 14.0126 5.00212 13.5679 4.74556C13.125 4.48825 12.7749 4.09736 12.5679 3.62889L11.979 2.31444C11.8052 1.92317 11.5217 1.59072 11.1627 1.3574C10.8038 1.12408 10.3849 0.99993 9.95675 1C9.52865 0.99993 9.10975 1.12408 8.75075 1.3574C8.39185 1.59072 8.10835 1.92317 7.93457 2.31444L7.35012 3.62889C7.14305 4.09736 6.793 4.48825 6.35012 4.74556C5.90534 5.00212 5.39079 5.11141 4.88012 5.05778L3.44568 4.90556C3.02001 4.86053 2.59042 4.93997 2.20899 5.13423C1.82757 5.32849 1.51069 5.62923 1.29679 6C1.08261 6.37054 0.980565 6.79528 1.00306 7.22267C1.02554 7.65007 1.17158 8.06175 1.42346 8.40778L2.27012 9.5711C2.57206 9.9864 2.73466 10.4866 2.73457 11C2.73466 11.5134 2.57206 12.0137 2.27012 12.4289L1.42346 13.5922C1.17158 13.9382 1.02554 14.3499 1.00306 14.7773C0.980565 15.2047 1.08261 15.6295 1.29679 16C1.51091 16.3706 1.82782 16.6712 2.20919 16.8654C2.59056 17.0596 3.02004 17.1392 3.44568 17.0944L4.87568 16.9422C5.38635 16.8886 5.90088 16.9979 6.34567 17.2544C6.79021 17.511 7.14189 17.902 7.35012 18.3711Z" stroke="white" stroke-width="2" stroke-linecap="round" stroke-linejoin="round"/>
</g>
</svg>
